<?xml version="1.0" encoding="UTF-8" standalone="no"?>
<svg
   viewBox="102.5 75.740002 229.99998 127.93324"
   version="1.1"
   id="svg22"
   sodipodi:docname="logo.svg"
   width="229.99998"
   height="127.93324"
   inkscape:version="1.1.1 (c3084ef, 2021-09-22)"
   xmlns:inkscape="http://www.inkscape.org/namespaces/inkscape"
   xmlns:sodipodi="http://sodipodi.sourceforge.net/DTD/sodipodi-0.dtd"
   xmlns="http://www.w3.org/2000/svg"
   xmlns:svg="http://www.w3.org/2000/svg">
  <defs
     id="defs26" />
  <sodipodi:namedview
     id="namedview24"
     pagecolor="#ffffff"
     bordercolor="#666666"
     borderopacity="1.0"
     inkscape:pageshadow="2"
     inkscape:pageopacity="0.0"
     inkscape:pagecheckerboard="0"
     showgrid="false"
     fit-margin-top="0"
     fit-margin-left="0"
     fit-margin-right="0"
     fit-margin-bottom="0"
     inkscape:zoom="1.9582655"
     inkscape:cx="101.36521"
     inkscape:cy="75.321758"
     inkscape:window-width="1312"
     inkscape:window-height="847"
     inkscape:window-x="0"
     inkscape:window-y="25"
     inkscape:window-maximized="0"
     inkscape:current-layer="Layer_1" />
  <svg
     version="1.1"
     id="Layer_1"
     x="172.5"
     y="145.74001"
     viewBox="28.296249 171.86002 580.65753 322.97998"
     xml:space="preserve"
     height="127.9375"
     width="230"
     preserveAspectRatio="xMinYMin"
     enable-background="new 0 0 629.35 612"
     style="overflow:visible"
     transform="matrix(0.39610267,0,0,0.39610267,91.29178,7.6657965)"><path
       class="st0"
       d="m 217.158,236.46816 c 0,8.04 -6.53,14.57 -14.57,14.57 H -60.601872 c -49.919998,0 -90.250028,-41.88 -87.710028,-92.32 1.83,-36.24 26.23002,-68.350019 60.87004,-79.210019 18.849996,-5.879999 38.39998,-5.359999 56.029968,0.85 17.819984,-50.299999 65.949944,-85.2199982 120.619904,-85.2199982 48.649988,0 90.999988,27.2600002 112.669988,67.3099992 5.17,9.59 9.17,19.929999 11.75,30.789999 -6.16,-1.22 -12.55,-1.88 -19.04,-1.88 -3.95,0 -7.8,0.23 -11.61,0.71 -3.24,-9.87 -7.99,-19.039999 -14.06,-27.259999 -17.95,-24.55 -47,-40.53 -79.709988,-40.53 -47.049964,0 -87.8099318,33.42 -96.9299241,79.489998 l -4.0399959,20.68002 -17.909988,-11.14001 c -9.259992,-5.73001 -19.979984,-8.79001 -30.929976,-8.79001 -34.219988,0 -61.720008,29.47002 -58.429998,64.35002 2.87,30.41 29.61001,53.02 60.169998,53.02 H 202.588 c 4.04,0 7.66,1.65 10.29,4.28 2.63,2.63 4.28,6.25 4.28,10.3 z"
       style="fill:#00aeef"
       id="path11" /><path
       class="st0"
       d="m 432.118,225.79816 c 2.54,50.44 -37.79,92.32 -87.67,92.32 H 81.208016 c -8.039992,0 -14.569988,-6.53 -14.569988,-14.57 0,-4 1.65,-7.66 4.279996,-10.29 2.63,-2.63 6.249996,-4.28 10.289992,-4.28 H 342.708 c 30.55,0 57.25,-22.61 60.12,-53.02 3.29,-34.88 -24.16,-64.35 -58.38,-64.35 -11,0 -21.67,3.06 -30.93,8.79 l -17.91,11.14 -4.09,-20.68 c -7.85,-39.72 -39.25,-70.04002 -77.89,-77.610019 -6.16,-1.22 -12.55,-1.88 -19.04,-1.88 -3.95,0 -7.8,0.23 -11.61,0.71 -44.94,5.26 -80.71,40.800019 -86.399996,85.650019 -0.89,7.15 -7.149992,12.46 -14.379988,12.46 -8.129992,0 -14.619988,-6.63 -14.619988,-14.53 0,-0.61 0.05,-1.22 0.14,-1.88 C 74.718024,119.43815 115.898,75.678141 168.928,64.818142 c 8.27,-1.69 16.88,-2.59 25.67,-2.59 2.44,0 4.89,0.05 7.29,0.23 51.66,2.91 96.36,36.949999 113.33,84.990018 17.67,-6.2 37.23,-6.72 56.03,-0.85 34.64,10.85 59.08,42.95 60.87,79.2 z"
       style="fill:#00aeef"
       id="path13" /></svg>
</svg>
